<svg width="26" height="26" fill="none" xmlns="http://www.w3.org/2000/svg"><path d="M5.223 2C3.989 2 3 2.932 3 4.095v16.762c0 .556.234 1.089.651 1.482.417.393.982.613 1.572.613h4.445v-2l2.322-2.19H5.223v-2.095h8.99l2.222-2.096H5.223v-2.095h13.435l2.122-2v-2.19L14.113 2h-8.89ZM13 3.571l6.112 5.762H13V3.571Zm7.946 9.953a.644.644 0 0 0-.445.167L19.37 14.76l2.323 2.179 1.133-1.058a.577.577 0 0 0 0-.828l-1.445-1.362a.608.608 0 0 0-.433-.167Zm-2.234 1.854-6.823 6.443V24h2.312l6.834-6.443-2.323-2.179Z" fill="#0E1117"/></svg>