<svg width="26" height="26" fill="none" xmlns="http://www.w3.org/2000/svg"><path d="M21.634 7.6H19.85l-4.379 4.742a2.1 2.1 0 0 1 .04 1.302 1.937 1.937 0 0 1-.728 1.038 1.69 1.69 0 0 1-2.256-.252 2.075 2.075 0 0 1-.233-2.443 1.83 1.83 0 0 1 .958-.79 1.67 1.67 0 0 1 1.203.044l4.378-4.743V4.564c0-.259.095-.507.264-.69l1.659-1.797a.235.235 0 0 1 .111-.07.221.221 0 0 1 .128.004.251.251 0 0 1 .166.199l.442 2.39 2.205.478a.246.246 0 0 1 .183.18.281.281 0 0 1 .003.138.266.266 0 0 1-.063.12l-1.66 1.798a.898.898 0 0 1-.292.212.84.84 0 0 1-.344.074Z" fill="#0E1117"/><path d="M3.517 13a9.483 9.483 0 1 0 18.966 0 9.53 9.53 0 0 0-.365-2.617.759.759 0 0 1 1.457-.417c.277.965.425 1.982.425 3.034 0 6.075-4.925 11-11 11S2 19.075 2 13 6.925 2 13 2a10.996 10.996 0 0 1 3.035.424.759.759 0 1 1-.418 1.458 9.497 9.497 0 0 0-9.322 2.413A9.483 9.483 0 0 0 3.517 13Z" fill="#0E1117"/><path d="M8.41 12.998a4.585 4.585 0 0 0 4.857 4.56 4.589 4.589 0 0 0 4.29-5.095.703.703 0 0 1 .986-.75c.236.105.395.33.416.587a5.994 5.994 0 0 1-3.341 6.1 6 6 0 1 1-1.93-11.36.706.706 0 1 1-.16 1.401 4.591 4.591 0 0 0-5.117 4.557Z" fill="#0E1117"/></svg>