<svg width="26" height="26" fill="none" xmlns="http://www.w3.org/2000/svg"><path d="M21.644 21.922 21.807 24l-1.918-1.287-5.322-9.9c.73-.226 1.158-.347 1.733-.846m.033-4.467c0 .875-.35 1.715-.976 2.333A3.35 3.35 0 0 1 13 10.8a3.99 3.99 0 0 1-.489 0l-6.4 11.913L4.356 24l.16-2.078 6.433-11.968c-.428-.473-1.112-1.312-1.213-1.939a3.27 3.27 0 0 1 .244-1.85c.26-.58.682-1.074 1.217-1.422A3.358 3.358 0 0 1 13 4.2V2c.295 0 .577.116.786.322.208.206.325.486.325.778v1.298A3.33 3.33 0 0 1 15.72 5.6a3.28 3.28 0 0 1 .614 1.9Zm-2.222 0a1.093 1.093 0 0 0-.686-1.016 1.122 1.122 0 0 0-1.21.238 1.097 1.097 0 0 0-.242 1.199 1.119 1.119 0 0 0 1.812.357c.209-.206.326-.486.326-.778Zm-9.755 3.3 1.977 1.98-1.6 3.036L2 13.11m11 6.226-1.667-1.661L9.667 20.7 13 24l3.333-3.3-1.633-3.047m6.944-6.853-1.977 1.98 1.666 3.036L24 13.11l-2.356-2.31Z" fill="#0E1117"/></svg>