<svg width="26" height="26" fill="none" xmlns="http://www.w3.org/2000/svg"><path fill-rule="evenodd" clip-rule="evenodd" d="M7.643 2h7.893L21 7.21v13.316c0 .307-.128.602-.356.82a1.246 1.246 0 0 1-.858.338H7.643c-.322 0-.631-.122-.859-.339a1.131 1.131 0 0 1-.355-.819V3.158c0-.307.128-.602.355-.819.228-.217.537-.339.859-.339Zm11.536 5.21-3.643-3.473v2.895c0 .153.064.3.178.409.113.109.268.17.429.17h3.036Zm-1.393 4.223a.566.566 0 0 1 .178.41c0 .153-.064.3-.178.408L12.5 17.292l-2.858-2.725a.565.565 0 0 1-.17-.407.566.566 0 0 1 .178-.404.622.622 0 0 1 .424-.17.623.623 0 0 1 .427.163l1.999 1.906 4.428-4.222a.623.623 0 0 1 .43-.17.62.62 0 0 1 .428.17Z" fill="#0E1117"/><path d="M5.214 5.474H4v15.631c0 .768.32 1.504.89 2.047.568.543 1.34.848 2.146.848H18.57v-1.158H7.036c-.483 0-.947-.183-1.288-.509a1.697 1.697 0 0 1-.534-1.228V5.474Z" fill="#0E1117"/></svg>