<svg width="26" height="26" fill="none" xmlns="http://www.w3.org/2000/svg"><path d="M21.8 15.6H17V14h4.8v1.6ZM25 22h-4.8v-1.6H25V22Zm-1.6-3.2h-4.8v-1.6h4.8v1.6Z" fill="#0E1117"/><path d="M14.558 16.143a3.511 3.511 0 0 0-.58-1.888 4.126 4.126 0 0 0-1.556-1.39L19 2.784 17.462 2l-6.735 10.313a5.71 5.71 0 0 0-2.5.066 5.249 5.249 0 0 0-2.16 1.115c-3.328 2.837-3.07 9.47-3.058 9.752.01.203.107.395.273.535.166.14.386.22.616.219h13.325a.97.97 0 0 0 .52-.148.8.8 0 0 0 .323-.39.7.7 0 0 0 .006-.482.795.795 0 0 0-.316-.394c-3.146-2.087-3.198-6.4-3.198-6.443Zm-4.509-2.36a2.96 2.96 0 0 1 1.902.696c.508.44.806 1.035.83 1.664 0 .03.002.163.016.368L7.552 14.45a3.54 3.54 0 0 1 1.173-.555 3.8 3.8 0 0 1 1.324-.112Zm3.129 8.646c-.71-.64-1.164-1.468-1.289-2.358h-1.778a4.71 4.71 0 0 0 .86 2.358H8.997a11.715 11.715 0 0 1-.662-3.143H6.556c.057 1.064.256 2.119.59 3.143H4.779c.028-1.443.258-4.63 1.603-6.72l6.696 2.631a9.675 9.675 0 0 0 2.008 4.089h-1.907Z" fill="#0E1117"/></svg>