<svg width="26" height="26" fill="none" xmlns="http://www.w3.org/2000/svg"><path d="M3.158 14.737V12.42h16.21a2.23 2.23 0 0 0 1.637-.68c.453-.454.68-.999.68-1.636 0-.637-.227-1.182-.68-1.636-.454-.453-1-.68-1.637-.68H6.43l1.853 1.824-1.65 1.65L2 6.632 6.632 2l1.65 1.621-1.853 1.853h12.94c1.273 0 2.364.453 3.27 1.36.908.907 1.361 1.998 1.361 3.271 0 1.274-.453 2.364-1.36 3.271s-1.998 1.36-3.272 1.36H3.158Zm0 9.263v-6.947H24V24H3.158Zm1.981-1.5H10v-4H5.14v4Zm6.361 0h4.695v-4H11.5v4Zm6 0H22v-4h-4.5v4Z" fill="#0E1117"/></svg>