<svg width="26" height="26" fill="none" xmlns="http://www.w3.org/2000/svg"><path d="M24 24h-6.286v-6.632H24V24Zm-4.714-1.658h3.143v-3.316h-3.143v3.316Zm-3.143-.829H6.714a4.59 4.59 0 0 1-3.333-1.457A5.116 5.116 0 0 1 2 16.54a5.12 5.12 0 0 1 1.38-3.517 4.593 4.593 0 0 1 3.334-1.457h1.572v1.658H6.714c-.833 0-1.633.35-2.222.971a3.41 3.41 0 0 0-.92 2.345c0 .88.33 1.723.92 2.345.59.622 1.389.971 2.222.971h9.429v1.658Z" fill="#0E1117"/><path d="M16.348 16.348H9.652V9.652h6.696v6.696Zm-5.022-1.674h3.348v-3.348h-3.348v3.348Z" fill="#0E1117"/><path d="M19.286 14.435h-1.572v-1.658h1.572c.833 0 1.633-.35 2.222-.971a3.41 3.41 0 0 0 .92-2.345c0-.88-.33-1.723-.92-2.345a3.062 3.062 0 0 0-2.222-.971H9.857V4.487h9.429c1.25 0 2.45.524 3.333 1.457A5.116 5.116 0 0 1 24 9.46a5.121 5.121 0 0 1-1.38 3.517 4.593 4.593 0 0 1-3.334 1.457Zm-11-5.803H2V2h6.286v6.632ZM3.57 6.974h3.143V3.658H3.571v3.316Z" fill="#0E1117"/></svg>