<svg width="311" height="330" fill="none" xmlns="http://www.w3.org/2000/svg"><path opacity=".5" d="m105.738 141.261 202.331-57.71" stroke="#AFB9CB" stroke-width=".15" stroke-miterlimit="10" stroke-linecap="round"/><path d="m267.436 29.953 42.531 79.182m0 90.395L181.492 325.625m128.475-131.13L181.492 302.283M1 129.881l97.042-37.839m169.395 52.335L87.224 92.042M1 202.047l103.891 33.641m92.824 66.595L1 211.659m196.715 113.966L1 221.271m189.269-90.159 119.698 25.781M203.128 132.02 1 160.397m0 39.67 207.782 59.192m-15.663 0 116.848-71.708m-22.8-150.732L1 144.007m103.891 23.05L1 169.243m86.224-2.186 222.743 4.064M92.486 235.688l217.481-57.441" stroke="#AFB9CB" stroke-width=".26" stroke-miterlimit="10" stroke-linecap="round"/><path d="m267.436 27.476 42.531 79.181m0 90.395L181.492 323.155m128.475-131.138L181.492 299.813M1 127.411l97.042-37.839M267.437 141.9 87.224 89.572M1 199.57l103.891 33.648m92.824 66.595L1 209.181m196.715 113.974L1 218.793m189.269-90.159 119.698 25.789m-106.84-24.881L1 157.919m0 39.67 207.782 59.2m-15.664 0 116.849-71.708m-22.8-150.74L1 141.529m103.891 23.05L1 166.773m86.224-2.194 222.743 4.064M92.486 233.218l217.481-57.449M267.436 31.847l42.531 79.182m0 90.395L181.492 327.527m128.475-131.138L181.492 304.185M1 131.775l97.042-37.83m169.395 52.326L87.224 93.944M1 203.941l103.891 33.641m92.824 66.603L1 213.553m196.715 113.974L1 223.165m189.269-90.159 119.698 25.781m-106.84-24.873L1 162.291m0 39.67 207.782 59.192m-15.664 0 116.849-71.7m-22.8-150.74L1 145.9m103.891 23.051L1 171.145m86.224-2.194 222.743 4.064M92.486 237.582l217.481-57.441" opacity=".5" stroke="#AFB9CB" stroke-width=".15" stroke-miterlimit="10" stroke-linecap="round"/><path d="M4.41 128.776v94.318l2.857 1.499v-96.929l-2.858 1.112Zm2.857-1.112 3.115.694v95.256l-3.115.979m92.09 9.28V95.57l6.381 1.854v134.768l-6.38 1.681Z" stroke="#AFB9CB" stroke-width=".26" stroke-miterlimit="10" stroke-linecap="round"/><path d="m99.358 95.57-6.139 1.965V231.9l6.139 1.973V95.57Zm29.966 47.3v93.749l4.634 1.326v-95.706l-4.634.631Z" stroke="#AFB9CB" stroke-width=".26" stroke-miterlimit="10" stroke-linecap="round"/><path d="m133.957 142.239 4.717.765v93.165l-4.717 1.776m64.128 18.268V132.777l-6.569.868v120.698l6.569 1.87Zm0-123.436 5.965 1.302v118.473l-5.965 3.661V132.777Z" stroke="#AFB9CB" stroke-width=".26" stroke-miterlimit="10" stroke-linecap="round"/><path d="M273.809 41.814v193.203l3.561-3.496V48.451l-3.561-6.637Z" stroke="#AFB9CB" stroke-width=".51" stroke-miterlimit="10" stroke-linecap="round"/><path d="m273.81 41.814-5.564 2.091V234.22l5.564.797V41.814Z" stroke="#AFB9CB" stroke-width=".51" stroke-miterlimit="10" stroke-linecap="round"/><path d="M304.524 99.002v105.87l-2.132 2.1V95.025l2.132 3.977Zm-2.132-3.977-3.349 1.176v110.771h3.349M171.771 80.04v140.315l4.815.916V78.233l-4.815 1.807Zm4.815-1.807 4.906 2.754v137.885l-4.906 2.399V78.233Zm101.903 157.455L1 195.829" stroke="#AFB9CB" stroke-width=".26" stroke-miterlimit="10" stroke-linecap="round"/><path d="m299.043 227.45-46-4.964v-77.927m-5.76-81.241-51.473 17.85m3.243-3.661v55.27m0-52.737 10.523 4.79 35.22-11.443m-35.22 11.443v49.802m3.727 1.428V87.576l31.493-10.07" stroke="#AFB9CB" stroke-width=".51" stroke-miterlimit="10" stroke-linecap="round"/><path d="m213.303 87.576 2.631 1.602 28.862-9.154m-28.862 9.154v47.458m16.6-55.208v58.775" stroke="#AFB9CB" stroke-width=".51" stroke-miterlimit="10" stroke-linecap="round"/><path d="M234.938 140.724V80.663l1.958 1.87v58.609" stroke="#AFB9CB" stroke-width=".51" stroke-linecap="round" stroke-linejoin="round"/><path d="M282.201 81.673v51.104l13.66 7.252v-39.59l-13.66-18.766Z" stroke="#AFB9CB" stroke-width=".51" stroke-miterlimit="10" stroke-linecap="round"/><path d="M295.861 100.439h-3.871l-9.789-10.685m9.789 10.685v37.412m-1.315-.576v-35.921l-8.474-9.312" stroke="#AFB9CB" stroke-width=".51" stroke-miterlimit="10" stroke-linecap="round"/><path d="M290.675 101.354h-1.058l-7.416-7.441m7.416 7.441v35.361M185.37 252.852v-103.1l-43.052 4.695v85.881l11.037-4.64v-82.449m0 82.449 32.015 8.617" stroke="#AFB9CB" stroke-width=".51" stroke-miterlimit="10" stroke-linecap="round"/><path d="m167.757 161.462-10.811.916v20.943h10.811v-21.859Zm2.343 0v21.859h13.297v-22.924l-13.297 1.065Zm-13.154 24.566h10.811v20.139l-10.811-.766v-19.373Zm13.154 0v20.139l13.297.804v-20.635l-13.297-.308Zm40.701-36.276v19.562l37.571.687v-15.325l-37.571-4.924Zm33.36 20.17v-15.799m-15.883-2.083v17.59m3.077-17.188v17.188m-5.285-17.59v17.558m56.131-10.574v11.592l13.66.245v-9.825l-13.66-2.012Zm11.566 1.704v10.101m-4.74-10.795v10.708m-1.86-10.866v10.827m-1.172-11.119v11.103" stroke="#AFB9CB" stroke-width=".51" stroke-miterlimit="10" stroke-linecap="round"/><path d="M4.41 126.527v86.702l182.835 84.232 86.565-72.734-20.767-2.241-54.958 33.727V132.777l-88.182 12.327v85.983M273.809 36.819v112.285" stroke="#AFB9CB" stroke-width="1.03" stroke-miterlimit="10" stroke-linecap="round"/><path d="M93.423 93.85v73.452h5.934v66.571l10.546-2.786 32.415 9.241M33.052 212.424l-22.67 3.331v-46.512l22.24-.663.43 43.844Zm0 0 66.305 21.449M4.41 213.229v9.865l182.774 96.944v-22.577" stroke="#AFB9CB" stroke-width="1.03" stroke-miterlimit="10" stroke-linecap="round"/><path d="m187.184 320.038 117.34-115.166V99.002L273.81 41.814 171.771 80.04v36.56L93.423 93.85 4.41 128.775M171.771 116.6v19.831m102.038 88.296v-75.623" stroke="#AFB9CB" stroke-width="1.03" stroke-miterlimit="10" stroke-linecap="round"/><path d="m198.085 132.777 54.641 11.782.317 77.927" stroke="#AFB9CB" stroke-width="1.03" stroke-miterlimit="10" stroke-linecap="round"/><path d="M110.614 111.368v21.409l54.95 11.23v-17.89l-54.95-14.749Z" stroke="#AFB9CB" stroke-width=".51" stroke-miterlimit="10" stroke-linecap="round"/><path d="m165.564 126.117-4.43 1.168.227 15.862m-.227-15.862-50.52-13.115m49.001 28.621v-14.512l-49.001-12.586" stroke="#AFB9CB" stroke-width=".51" stroke-miterlimit="10" stroke-linecap="round"/><path d="M159.615 128.279h-1.21v14.26M148.2 125.352v15.103m-1.701-15.545v15.056m-1.172-15.056v15.009m-16.003-19.192v15.87m-2.344-.474v-16.224m-1.376-.355v16.24" stroke="#AFB9CB" stroke-width=".51" stroke-miterlimit="10" stroke-linecap="round"/><path d="m93.423 167.302-60.801 1.278" stroke="#AFB9CB" stroke-width="1.03" stroke-miterlimit="10" stroke-linecap="round"/><path d="M77.291 115.424v34.264m-24.35-25.141v28.558m-14.778-23.026v25.102m-19.625-17.748v21.133m0-21.133 2.918.418v19.674m0-19.674 16.707-5.602m14.778-7.702 3.962.489v27.43m0-27.43 20.388-7.323m-19.148 34.659v-26.531l19.148-6.716m-8.263 2.896v28.827" stroke="#AFB9CB" stroke-width=".51" stroke-miterlimit="10" stroke-linecap="round"/><path d="M70.609 150.62v-29.151l1.126.552v28.441m-13.592-24.621.877.379v26.033m0-26.033 10.008-3.354m2.707-.845 5.556-1.98m-54.799 37.334v-18.869l15.67-4.884m-7.831 2.438v20.218" stroke="#AFB9CB" stroke-width=".51" stroke-miterlimit="10" stroke-linecap="round"/><path d="M31.367 156.136v-20.399l.763.323v19.965m-9.638-17.519.703.261v18.513m0-18.513 7.136-2.17m1.799-.537 6.033-1.87" stroke="#AFB9CB" stroke-width=".51" stroke-miterlimit="10" stroke-linecap="round"/><path d="M7.267 101.354v153.147M93.22 72.709v228.43m6.137-225.905v232.541M171.513 70.42v259.285M273.809 24.777v234.088M133.957 54.598v194.695M304.524 77.096v150.977M198.297 114.604V265.58M1 119.141 285.995.921m23.972 94.104L258.153.921" stroke="#AFB9CB" stroke-width=".15" stroke-miterlimit="10" stroke-linecap="round"/><path d="M244.796 61.834v80.823M38.707 173.015H93.22v36.174l-54.512-7.947v-28.227Z" stroke="#AFB9CB" stroke-width=".51" stroke-miterlimit="10" stroke-linecap="round"/><path d="M42.154 173.015v27.659l-3.447.568m3.455-.568 51.057 7.016m-49.402-34.675v26.554l49.402 6.029M65.96 173.015v29.253m4.097.316v-29.569m-1.535 0v29.569" stroke="#AFB9CB" stroke-width=".51" stroke-miterlimit="10" stroke-linecap="round"/><path d="M43.817 199.569h1.247v-26.554" stroke="#AFB9CB" stroke-width=".51" stroke-miterlimit="10" stroke-linecap="round"/></svg>