<svg width="26" height="26" viewBox="0 0 26 26" fill="none" xmlns="http://www.w3.org/2000/svg">
<path d="M5.22253 2C3.98903 2 3 2.93238 3 4.09524V20.8571C3 21.4128 3.23416 21.9458 3.65096 22.3387C4.06777 22.7316 4.63308 22.9524 5.22253 22.9524H9.66759V20.9514L11.9901 18.7619H5.22253V16.6667H14.2127L16.4352 14.5714H5.22253V12.4762H18.6577L20.7802 10.4752V8.28571L14.1127 2H5.22253ZM13.0014 3.57143L19.1133 9.33333H13.0014V3.57143ZM20.9469 13.5238C20.8647 13.5221 20.7829 13.5361 20.7066 13.5649C20.6302 13.5937 20.5607 13.6367 20.5024 13.6914L19.3689 14.76L21.6915 16.939L22.825 15.881C23.0583 15.6505 23.0583 15.2733 22.825 15.0533L21.3803 13.6914C21.3236 13.6377 21.256 13.5952 21.1816 13.5664C21.1071 13.5377 21.0274 13.5232 20.9469 13.5238ZM18.7133 15.3781L11.8901 21.821V24H14.2016L21.0358 17.5571L18.7133 15.3781Z" fill="#0E1117"/>
</svg>
