<svg width="26" height="26" viewBox="0 0 26 26" fill="none" xmlns="http://www.w3.org/2000/svg">
<path d="M21.8 15.6H17V14H21.8V15.6ZM25 22H20.2V20.4H25V22ZM23.4 18.8H18.6V17.2H23.4V18.8Z" fill="#0E1117"/>
<path d="M14.5583 16.1429C14.5521 15.4799 14.352 14.8296 13.9776 14.2551C13.6032 13.6806 13.0672 13.2014 12.4215 12.8641L19 2.78571L17.4623 2L10.7273 12.3133C9.90073 12.1501 9.04106 12.1726 8.22692 12.3789C7.41277 12.5852 6.67014 12.9687 6.06694 13.4942C2.73901 16.3314 2.99679 22.9644 3.00923 23.2457C3.01842 23.4486 3.11611 23.6405 3.28182 23.7811C3.44753 23.9217 3.66839 24.0002 3.8981 24H17.2231C17.4097 24 17.5915 23.9481 17.7429 23.8517C17.8942 23.7553 18.0074 23.6192 18.0664 23.4627C18.1254 23.3063 18.1272 23.1374 18.0716 22.98C18.016 22.8226 17.9057 22.6847 17.7565 22.5857C14.6099 20.4989 14.5583 16.1853 14.5583 16.1429ZM10.0491 13.7834C10.7605 13.7903 11.4415 14.0394 11.9505 14.4788C12.4594 14.9183 12.757 15.5143 12.7815 16.1429C12.7815 16.1727 12.7832 16.3063 12.7966 16.5114L7.55224 14.4496C7.89769 14.1978 8.29633 14.0093 8.72497 13.8949C9.15362 13.7805 9.60371 13.7426 10.0491 13.7834ZM13.1779 22.4286C12.4674 21.7891 12.0145 20.9608 11.889 20.0714H10.1113C10.175 20.9076 10.4705 21.7172 10.9717 22.4286H8.99577C8.63022 21.4089 8.40782 20.3534 8.33356 19.2857H6.55582C6.61314 20.3502 6.81153 21.405 7.14692 22.4286H4.77808C4.80564 20.986 5.03585 17.7991 6.38071 15.7084L13.0766 18.3405C13.3983 19.8171 14.0842 21.2129 15.0854 22.4286H13.1779Z" fill="#0E1117"/>
</svg>
