<svg width="26" height="26" viewBox="0 0 26 26" fill="none" xmlns="http://www.w3.org/2000/svg">
<path d="M3.15789 14.7368V12.4211H19.3684C20.0053 12.4211 20.5506 12.1941 21.0045 11.7402C21.4576 11.2871 21.6842 10.7421 21.6842 10.1053C21.6842 9.46842 21.4576 8.92305 21.0045 8.46916C20.5506 8.01604 20.0053 7.78947 19.3684 7.78947H6.42895L8.28158 9.61316L6.63158 11.2632L2 6.63158L6.63158 2L8.28158 3.62105L6.42895 5.47368H19.3684C20.6421 5.47368 21.7325 5.92719 22.6395 6.83421C23.5465 7.74123 24 8.83158 24 10.1053C24 11.3789 23.5465 12.4693 22.6395 13.3763C21.7325 14.2833 20.6421 14.7368 19.3684 14.7368H3.15789ZM3.15789 24V17.0526H24V24H3.15789ZM5.13947 22.5H10V18.5H5.13947V22.5ZM11.5 22.5H16.1947V18.5H11.5V22.5ZM17.5 22.5H22V18.5H17.5V22.5Z" fill="#0E1117"/>
</svg>
