<svg width="26" height="26" viewBox="0 0 26 26" fill="none" xmlns="http://www.w3.org/2000/svg">
<path d="M16.5456 2L6.39946 8.48666H2C2 8.48666 2.00001 8.68615 2.00001 8.92998V11.0358V13.1416V14.1945V15.2474V17.3532C2.00001 17.3532 2.05973 17.3532 2.28074 17.3532H6.39946L16.5456 24V23.0305V2.80933V2Z" fill="#0E1117"/>
<path d="M20.5 11L20 11.5L21.5 13L22 13.5L23.5 15L24 14.5L22.5 13L22 12.5L20.5 11Z" fill="#0E1117"/>
<path d="M22 12.5L22.5 13L24 11.5L23.5 11L22 12.5Z" fill="#0E1117"/>
<path d="M22 13.5L21.5 13L20 14.5L20.5 15L21.25 14.25L22 13.5Z" fill="#0E1117"/>
</svg>
