<svg width="18" height="19" viewBox="0 0 18 19" fill="none" xmlns="http://www.w3.org/2000/svg">
<path d="M16 9.94995C16 7.99995 15.3207 6.34562 13.962 4.98695C12.604 3.62895 10.95 2.94995 9 2.94995V0.949951C10.25 0.949951 11.421 1.18728 12.513 1.66195C13.6043 2.13728 14.5543 2.77928 15.363 3.58795C16.171 4.39595 16.8127 5.34595 17.288 6.43795C17.7627 7.52928 18 8.69995 18 9.94995H16ZM12 9.94995C12 9.11662 11.7083 8.40828 11.125 7.82495C10.5417 7.24162 9.83333 6.94995 9 6.94995V4.94995C10.3833 4.94995 11.5627 5.43728 12.538 6.41195C13.5127 7.38728 14 8.56662 14 9.94995H12ZM16.95 18.9999C14.8 18.9999 12.7043 18.5249 10.663 17.5749C8.621 16.6249 6.81267 15.3583 5.238 13.7749C3.66267 12.1916 2.396 10.379 1.438 8.33695C0.479334 6.29562 0 4.19995 0 2.04995V1.52495C0 1.34162 0.0166666 1.16662 0.05 0.999951H5.9L6.825 6.02495L3.975 8.89995C4.675 10.0999 5.55433 11.2249 6.613 12.275C7.671 13.3249 8.83333 14.2333 10.1 14.9999L13 12.1L18 13.0999V18.9499C17.8333 18.9666 17.6583 18.9793 17.475 18.9879C17.2917 18.9959 17.1167 18.9999 16.95 18.9999Z" fill="#F6F8FB"/>
</svg>
