<svg width="165" height="44" fill="none" xmlns="http://www.w3.org/2000/svg"><path d="M0 44h6.578L39.54 11.037V44H44V0L0 44Z" fill="#0E1117"/><path d="M34.906 28.279h-3.887v3.886h3.887V28.28Zm0 5.207h-3.887v3.887h3.887v-3.887Zm-5.282 3.887H20.53l3.887-3.887h5.207v3.887Zm0-5.208h-3.887l3.887-3.886v3.886ZM11.59 16.575l5.29.49-1.828 6.958 9.797-9.782-5.29-.49 1.827-6.958-9.796 9.782ZM64 25.92V28h-8.672V16.8h8.464v2.08h-5.888v2.432h5.2v2.016h-5.2v2.592H64Zm7.118-6.656c1.067 0 1.926.32 2.576.96.662.64.992 1.59.992 2.848V28H72.19v-4.544c0-.683-.149-1.19-.448-1.52-.298-.341-.73-.512-1.296-.512-.629 0-1.13.197-1.504.592-.373.384-.56.96-.56 1.728V28h-2.496v-8.608h2.384V20.4a3.23 3.23 0 0 1 1.232-.832 4.192 4.192 0 0 1 1.616-.304Zm14.357 4.464c0 .032-.016.256-.048.672h-6.512c.117.533.394.955.832 1.264.437.31.981.464 1.632.464.448 0 .842-.064 1.184-.192.352-.139.677-.352.976-.64l1.328 1.44c-.811.928-1.995 1.392-3.552 1.392-.971 0-1.83-.187-2.576-.56-.747-.384-1.323-.912-1.728-1.584-.406-.672-.608-1.435-.608-2.288 0-.843.197-1.6.592-2.272a4.2 4.2 0 0 1 1.648-1.584c.704-.384 1.488-.576 2.352-.576.842 0 1.605.181 2.288.544a3.905 3.905 0 0 1 1.6 1.568c.394.672.592 1.456.592 2.352Zm-4.464-2.576c-.566 0-1.04.16-1.424.48-.384.32-.619.757-.704 1.312h4.24c-.086-.544-.32-.976-.704-1.296-.384-.33-.854-.496-1.408-.496Zm8.51-.624a2.78 2.78 0 0 1 1.2-.944c.511-.213 1.098-.32 1.76-.32v2.304a9.038 9.038 0 0 0-.56-.032c-.715 0-1.275.203-1.68.608-.406.395-.609.992-.609 1.792V28h-2.496v-8.608h2.384v1.136Zm13.245-1.136v7.168c0 1.579-.41 2.752-1.232 3.52-.821.768-2.021 1.152-3.6 1.152a9.002 9.002 0 0 1-2.368-.304c-.746-.203-1.365-.496-1.856-.88l.992-1.792c.363.299.822.533 1.376.704.555.181 1.11.272 1.664.272.864 0 1.499-.197 1.904-.592.416-.384.624-.97.624-1.76v-.368c-.65.715-1.557 1.072-2.72 1.072-.789 0-1.514-.17-2.176-.512a4.036 4.036 0 0 1-1.552-1.472c-.384-.63-.576-1.355-.576-2.176 0-.821.192-1.547.576-2.176a3.92 3.92 0 0 1 1.552-1.456 4.558 4.558 0 0 1 2.176-.528c1.248 0 2.198.41 2.848 1.232v-1.104h2.368Zm-4.72 6.144c.662 0 1.2-.192 1.616-.576.427-.395.64-.907.64-1.536 0-.63-.213-1.136-.64-1.52-.416-.395-.954-.592-1.616-.592-.661 0-1.205.197-1.632.592-.426.384-.64.89-.64 1.52s.214 1.141.64 1.536c.427.384.971.576 1.632.576Zm15.588-6.144-3.888 9.136c-.395.992-.886 1.69-1.472 2.096-.576.405-1.275.608-2.096.608-.448 0-.891-.07-1.328-.208-.438-.139-.795-.33-1.073-.576l.913-1.776a2.159 2.159 0 0 0 1.408.544c.341 0 .618-.085.832-.256.213-.16.405-.432.576-.816l.032-.08-3.729-8.672h2.577l2.416 5.84 2.432-5.84h2.4Zm18.122-2.592L128.092 28h-2.784l-2.464-7.584L120.3 28h-2.768l-3.68-11.2h2.688l2.528 7.872 2.64-7.872h2.4l2.56 7.936 2.608-7.936h2.48Zm4.726 11.328c-.906 0-1.722-.187-2.448-.56a4.301 4.301 0 0 1-1.68-1.584c-.405-.672-.608-1.435-.608-2.288 0-.853.203-1.616.608-2.288a4.188 4.188 0 0 1 1.68-1.568c.726-.384 1.542-.576 2.448-.576.907 0 1.718.192 2.432.576a4.175 4.175 0 0 1 1.68 1.568c.406.672.608 1.435.608 2.288 0 .853-.202 1.616-.608 2.288a4.288 4.288 0 0 1-1.68 1.584c-.714.373-1.525.56-2.432.56Zm0-2.048c.64 0 1.163-.213 1.568-.64.416-.437.624-1.019.624-1.744 0-.725-.208-1.301-.624-1.728-.405-.437-.928-.656-1.568-.656s-1.168.219-1.584.656c-.416.427-.624 1.003-.624 1.728 0 .725.208 1.307.624 1.744.416.427.944.64 1.584.64Zm8.773-5.552a2.78 2.78 0 0 1 1.2-.944c.512-.213 1.098-.32 1.76-.32v2.304a9.063 9.063 0 0 0-.56-.032c-.715 0-1.275.203-1.68.608-.406.395-.608.992-.608 1.792V28h-2.496v-8.608h2.384v1.136Zm4.444-4.4h2.496V28h-2.496V16.128Zm13.58 0V28h-2.384v-.992c-.618.747-1.514 1.12-2.688 1.12-.81 0-1.546-.181-2.208-.544a3.919 3.919 0 0 1-1.536-1.552c-.373-.672-.56-1.45-.56-2.336 0-.885.187-1.664.56-2.336a3.919 3.919 0 0 1 1.536-1.552 4.519 4.519 0 0 1 2.208-.544c1.099 0 1.958.347 2.576 1.04v-4.176h2.496Zm-4.64 9.952c.63 0 1.152-.213 1.568-.64.416-.437.624-1.019.624-1.744 0-.725-.208-1.301-.624-1.728-.416-.437-.938-.656-1.568-.656-.64 0-1.168.219-1.584.656-.416.427-.624 1.003-.624 1.728 0 .725.208 1.307.624 1.744.416.427.944.64 1.584.64Z" fill="#0E1117"/></svg>