<svg width="18" height="19" fill="none" xmlns="http://www.w3.org/2000/svg"><path d="M16 9.95c0-1.95-.68-3.604-2.038-4.963C12.604 3.629 10.95 2.95 9 2.95v-2a8.71 8.71 0 0 1 3.513.712 9.16 9.16 0 0 1 2.85 1.926 9.151 9.151 0 0 1 1.925 2.85A8.708 8.708 0 0 1 18 9.95h-2Zm-4 0c0-.833-.292-1.542-.875-2.125A2.893 2.893 0 0 0 9 6.95v-2c1.383 0 2.563.487 3.538 1.462C13.513 7.387 14 8.567 14 9.95h-2ZM16.95 19c-2.15 0-4.246-.475-6.287-1.425a18.731 18.731 0 0 1-5.425-3.8 19.226 19.226 0 0 1-3.8-5.438C.479 6.296 0 4.2 0 2.05v-.525C0 1.342.017 1.167.05 1H5.9l.925 5.025L3.975 8.9a16.4 16.4 0 0 0 2.638 3.375A18.627 18.627 0 0 0 10.1 15l2.9-2.9 5 1v5.85a9.952 9.952 0 0 1-1.05.05Z" fill="#F6F8FB"/></svg>