<svg width="20" height="22" viewBox="0 0 20 22" fill="none" xmlns="http://www.w3.org/2000/svg">
<path d="M2.22253 0C0.989026 0 0 0.932381 0 2.09524V18.8571C0 19.4128 0.234159 19.9458 0.650964 20.3387C1.06777 20.7316 1.63308 20.9524 2.22253 20.9524H6.66759V18.9514L8.99014 16.7619H2.22253V14.6667H11.2127L13.4352 12.5714H2.22253V10.4762H15.6577L17.7802 8.47524V6.28571L11.1127 0H2.22253ZM10.0014 1.57143L16.1134 7.33333H10.0014V1.57143ZM17.9469 11.5238C17.8647 11.5221 17.7829 11.5361 17.7066 11.5649C17.6302 11.5937 17.5607 11.6367 17.5024 11.6914L16.3689 12.76L18.6915 14.939L19.825 13.881C20.0583 13.6505 20.0583 13.2733 19.825 13.0533L18.3803 11.6914C18.3236 11.6377 18.256 11.5952 18.1816 11.5664C18.1071 11.5377 18.0274 11.5232 17.9469 11.5238ZM15.7133 13.3781L8.89012 19.821V22H11.2016L18.0358 15.5571L15.7133 13.3781Z" fill="#0E1117"/>
</svg>
