<svg width="26" height="26" viewBox="0 0 26 26" fill="none" xmlns="http://www.w3.org/2000/svg">
<path d="M21.6342 7.59995H19.8494L15.4704 12.3418C15.6212 12.7582 15.6351 13.2182 15.5096 13.6443C15.3842 14.0705 15.1272 14.4369 14.7817 14.6819C14.4362 14.927 14.0234 15.0356 13.6127 14.9897C13.202 14.9438 12.8184 14.746 12.5264 14.4297C12.2344 14.1134 12.0519 13.6979 12.0095 13.2529C11.9671 12.808 12.0674 12.3608 12.2936 11.9865C12.5198 11.6123 12.858 11.3338 13.2514 11.1979C13.6448 11.0621 14.0694 11.0771 14.4538 11.2405L18.8318 6.49761V4.56409C18.8319 4.30536 18.9268 4.05725 19.0956 3.87422L20.7548 2.0768C20.7854 2.04323 20.8239 2.01938 20.8662 2.00784C20.9085 1.9963 20.9528 1.99752 20.9945 2.01135C21.0799 2.03836 21.1432 2.11525 21.1604 2.20979L21.6016 4.60045L23.8074 5.07838C23.8937 5.09708 23.9647 5.16565 23.9897 5.25812C24.0022 5.30304 24.0034 5.35081 23.9929 5.39636C23.9824 5.44192 23.9608 5.48355 23.9302 5.51682L22.2701 7.31423C22.1866 7.40479 22.0875 7.47664 21.9784 7.52566C21.8693 7.57469 21.7523 7.59993 21.6342 7.59995Z" fill="#0E1117"/>
<path d="M3.51724 13C3.51724 15.515 4.51631 17.927 6.29468 19.7053C8.07304 21.4837 10.485 22.4828 13 22.4828C14.2453 22.4828 15.4784 22.2375 16.6289 21.7609C17.7794 21.2844 18.8248 20.5859 19.7053 19.7053C20.5859 18.8248 21.2844 17.7794 21.7609 16.6289C22.2375 15.4784 22.4828 14.2453 22.4828 13C22.4828 12.0917 22.3553 11.2137 22.1176 10.3833C22.0704 10.1926 22.0989 9.99102 22.1973 9.82098C22.2956 9.65093 22.4561 9.52566 22.6449 9.47154C22.8338 9.41742 23.0363 9.43866 23.2098 9.53079C23.3833 9.62292 23.5142 9.77876 23.5752 9.96552C23.8523 10.9305 24 11.948 24 13C24 19.075 19.075 24 13 24C6.92497 24 2 19.075 2 13C2 6.92497 6.92497 2.00001 13 2.00001C14.0267 1.99899 15.0473 2.14161 16.0345 2.42382C16.1307 2.45082 16.2207 2.49658 16.2992 2.55847C16.3777 2.62036 16.4432 2.69716 16.492 2.78445C16.5407 2.87174 16.5717 2.9678 16.5832 3.06711C16.5947 3.16642 16.5864 3.26702 16.5589 3.36313C16.5314 3.45923 16.4851 3.54895 16.4228 3.62713C16.3605 3.7053 16.2833 3.77038 16.1958 3.81864C16.1082 3.8669 16.012 3.89737 15.9126 3.90831C15.8132 3.91925 15.7127 3.91045 15.6167 3.8824C14.7658 3.63936 13.885 3.51646 13 3.51725C10.485 3.51725 8.07304 4.51632 6.29468 6.29468C4.51631 8.07304 3.51724 10.485 3.51724 13Z" fill="#0E1117"/>
<path d="M8.41074 12.9984C8.41337 13.6216 8.54303 14.2378 8.79182 14.8092C9.0406 15.3807 9.40328 15.8954 9.85771 16.3221C10.3121 16.7488 10.8488 17.0783 11.4349 17.2907C12.021 17.5031 12.6443 17.5939 13.2666 17.5575C13.889 17.521 14.4974 17.3582 15.0547 17.0788C15.612 16.7995 16.1065 16.4096 16.508 15.9328C16.9096 15.456 17.2097 14.9025 17.39 14.3059C17.5704 13.7093 17.6272 13.0823 17.5571 12.463C17.5373 12.3376 17.5518 12.2092 17.5992 12.0913C17.6465 11.9735 17.7248 11.8707 17.8258 11.7937C17.9268 11.7167 18.0467 11.6685 18.1729 11.6542C18.2991 11.6398 18.4269 11.6598 18.5426 11.7121C18.7788 11.8175 18.9379 12.0424 18.9586 12.3002C19.1048 13.5378 18.8616 14.7902 18.2629 15.8832C17.6642 16.9763 16.7398 17.8558 15.618 18.3994C14.4963 18.943 13.233 19.1237 12.0038 18.9165C10.7745 18.7093 9.64038 18.1244 8.75901 17.2431C7.87789 16.3627 7.29263 15.2301 7.08442 14.0023C6.87621 12.7745 7.05537 11.5123 7.59704 10.3909C8.13871 9.26942 9.01605 8.34426 10.1074 7.74371C11.1987 7.14316 12.4499 6.89698 13.6875 7.03932C13.7811 7.048 13.8719 7.07526 13.9548 7.11951C14.0377 7.16375 14.1109 7.22409 14.1702 7.29699C14.2294 7.36989 14.2735 7.45388 14.2999 7.54403C14.3262 7.63419 14.3343 7.7287 14.3237 7.82202C14.313 7.91535 14.2839 8.0056 14.2379 8.08751C14.1919 8.16941 14.13 8.24131 14.0558 8.29899C13.9817 8.35667 13.8967 8.39898 13.806 8.42342C13.7153 8.44787 13.6206 8.45396 13.5275 8.44135C12.8846 8.36705 12.2333 8.4295 11.6163 8.62459C10.9993 8.81968 10.4305 9.14301 9.94732 9.57335C9.46412 10.0037 9.07743 10.5313 8.81261 11.1216C8.54779 11.7119 8.41084 12.3515 8.41074 12.9984Z" fill="#0E1117"/>
</svg>
