<svg width="26" height="26" viewBox="0 0 26 26" fill="none" xmlns="http://www.w3.org/2000/svg">
<path d="M21.6444 21.9218L21.8066 24L19.8889 22.713L14.5667 12.813C15.2961 12.5867 15.7253 12.4658 16.3 11.9668M16.3333 7.5C16.3333 8.37521 15.9821 9.21458 15.357 9.83345C14.7319 10.4523 13.8841 10.8 13 10.8C12.8372 10.8109 12.6739 10.8109 12.5111 10.8L6.11111 22.713L4.35556 24L4.51538 21.9218L10.9487 9.95382C10.5213 9.48083 9.83651 8.64203 9.73641 8.01519C9.63631 7.38835 9.7209 6.74624 9.98005 6.16578C10.2392 5.58533 10.6619 5.09117 11.1975 4.74251C11.7332 4.39385 12.359 4.20549 13 4.2V2C13.2947 2 13.5773 2.11589 13.7857 2.32218C13.994 2.52847 14.1111 2.80826 14.1111 3.1V4.398C14.7595 4.62494 15.3211 5.04488 15.719 5.60023C16.1168 6.15558 16.3314 6.81916 16.3333 7.5ZM14.1111 7.5C14.1111 7.28244 14.0459 7.06977 13.9239 6.88887C13.8018 6.70798 13.6282 6.56699 13.4252 6.48373C13.2222 6.40048 12.9988 6.37869 12.7832 6.42114C12.5677 6.46358 12.3697 6.56835 12.2143 6.72218C12.0589 6.87602 11.9531 7.07202 11.9102 7.2854C11.8674 7.49878 11.8894 7.71995 11.9735 7.92095C12.0576 8.12195 12.2 8.29375 12.3827 8.41462C12.5654 8.53549 12.7802 8.6 13 8.6C13.2947 8.6 13.5773 8.48411 13.7857 8.27782C13.994 8.07153 14.1111 7.79174 14.1111 7.5ZM4.35556 10.8L6.33333 12.78L4.73333 15.816L2 13.11M13 19.336L11.3333 17.675L9.66667 20.7L13 24L16.3333 20.7L14.7 17.653M21.6444 10.8L19.6667 12.78L21.3333 15.816L24 13.11L21.6444 10.8Z" fill="#0E1117"/>
</svg>
