<svg width="26" height="26" viewBox="0 0 26 26" fill="none" xmlns="http://www.w3.org/2000/svg">
<path d="M17 11.4286C18.66 11.4286 19.99 9.99286 19.99 8.21429C19.99 6.43571 18.66 5 17 5C15.34 5 14 6.43571 14 8.21429C14 9.99286 15.34 11.4286 17 11.4286ZM9 11.4286C10.66 11.4286 11.99 9.99286 11.99 8.21429C11.99 6.43571 10.66 5 9 5C7.34 5 6 6.43571 6 8.21429C6 9.99286 7.34 11.4286 9 11.4286ZM9 13.5714C6.67 13.5714 2 14.825 2 17.3214V20H16V17.3214C16 14.825 11.33 13.5714 9 13.5714ZM17 13.5714C16.71 13.5714 16.38 13.5929 16.03 13.625C17.19 14.525 18 15.7357 18 17.3214V20H24V17.3214C24 14.825 19.33 13.5714 17 13.5714Z" fill="#0E1117"/>
</svg>
