<svg width="26" height="26" viewBox="0 0 26 26" fill="none" xmlns="http://www.w3.org/2000/svg">
<path d="M24 24H17.7143V17.3681H24V24ZM19.2857 22.342H22.4286V19.0261H19.2857V22.342ZM16.1429 21.513H6.71429C5.46398 21.513 4.26488 20.989 3.38078 20.0562C2.49668 19.1234 2 17.8583 2 16.5391C2 15.2199 2.49668 13.9548 3.38078 13.022C4.26488 12.0892 5.46398 11.5652 6.71429 11.5652H8.28571V13.2232H6.71429C5.88075 13.2232 5.08135 13.5725 4.49195 14.1944C3.90255 14.8162 3.57143 15.6597 3.57143 16.5391C3.57143 17.4185 3.90255 18.262 4.49195 18.8838C5.08135 19.5057 5.88075 19.855 6.71429 19.855H16.1429V21.513Z" fill="#0E1117"/>
<path d="M16.3478 16.3479H9.65216V9.65222H16.3478V16.3479ZM11.3261 14.674H14.6739V11.3261H11.3261V14.674Z" fill="#0E1117"/>
<path d="M19.2857 14.4348H17.7143V12.7768H19.2857C20.1193 12.7768 20.9186 12.4275 21.508 11.8056C22.0974 11.1837 22.4286 10.3403 22.4286 9.46087C22.4286 8.58143 22.0974 7.738 21.508 7.11614C20.9186 6.49428 20.1193 6.14493 19.2857 6.14493H9.85714V4.48696H19.2857C20.536 4.48696 21.7351 5.01099 22.6192 5.94378C23.5033 6.87657 24 8.14171 24 9.46087C24 10.78 23.5033 12.0452 22.6192 12.978C21.7351 13.9107 20.536 14.4348 19.2857 14.4348ZM8.28571 8.63188H2V2H8.28571V8.63188ZM3.57143 6.97391H6.71429V3.65797H3.57143V6.97391Z" fill="#0E1117"/>
</svg>
