<svg width="26" height="26" viewBox="0 0 26 26" fill="none" xmlns="http://www.w3.org/2000/svg">
<path fill-rule="evenodd" clip-rule="evenodd" d="M7.64287 2H15.5357L21 7.21053V20.5263C21 20.8334 20.8721 21.1279 20.6444 21.3451C20.4166 21.5622 20.1078 21.6842 19.7857 21.6842H7.64287C7.32083 21.6842 7.01197 21.5622 6.78425 21.3451C6.55652 21.1279 6.42859 20.8334 6.42859 20.5263V3.15789C6.42859 2.8508 6.55652 2.55629 6.78425 2.33914C7.01197 2.12199 7.32083 2 7.64287 2ZM19.1786 7.21053L15.5357 3.73684V6.63158C15.5357 6.78513 15.5997 6.93238 15.7136 7.04096C15.8274 7.14953 15.9819 7.21053 16.1429 7.21053H19.1786ZM17.7864 11.4328C17.9002 11.5414 17.9642 11.6886 17.9642 11.8421C17.9642 11.9956 17.9002 12.1429 17.7864 12.2514L12.5 17.2923L9.6422 14.5672C9.5316 14.458 9.4704 14.3118 9.47179 14.16C9.47317 14.0082 9.53702 13.863 9.64959 13.7556C9.76216 13.6483 9.91444 13.5874 10.0736 13.5861C10.2328 13.5848 10.3862 13.6431 10.5007 13.7486L12.5 15.6551L16.9279 11.4328C17.0418 11.3243 17.1962 11.2633 17.3572 11.2633C17.5182 11.2633 17.6726 11.3243 17.7864 11.4328Z" fill="black"/>
<path d="M5.21429 5.47363H4V21.1052C4 21.8729 4.31983 22.6092 4.88914 23.1521C5.45845 23.695 6.23059 23.9999 7.03571 23.9999H18.5714V22.8421H7.03571C6.55264 22.8421 6.08935 22.6591 5.74777 22.3333C5.40619 22.0076 5.21429 21.5659 5.21429 21.1052V5.47363Z" fill="black"/>
</svg>
