<svg width="38" height="38" viewBox="0 0 38 38" fill="none" xmlns="http://www.w3.org/2000/svg">
<path d="M24.0313 16.8438C24.0313 17.2251 23.8798 17.5907 23.6102 17.8603C23.3406 18.1299 22.975 18.2813 22.5938 18.2813H18.2813V22.5938C18.2813 22.9751 18.1298 23.3407 17.8602 23.6103C17.5906 23.8799 17.225 24.0313 16.8438 24.0313C16.4625 24.0313 16.0969 23.8799 15.8273 23.6103C15.5577 23.3407 15.4063 22.9751 15.4063 22.5938V18.2813H11.0938C10.7125 18.2813 10.3469 18.1299 10.0773 17.8603C9.8077 17.5907 9.65625 17.2251 9.65625 16.8438C9.65625 16.4626 9.8077 16.097 10.0773 15.8274C10.3469 15.5578 10.7125 15.4063 11.0938 15.4063H15.4063V11.0938C15.4063 10.7126 15.5577 10.347 15.8273 10.0774C16.0969 9.8078 16.4625 9.65635 16.8438 9.65635C17.225 9.65635 17.5906 9.8078 17.8602 10.0774C18.1298 10.347 18.2813 10.7126 18.2813 11.0938V15.4063H22.5938C22.975 15.4063 23.3406 15.5578 23.6102 15.8274C23.8798 16.097 24.0313 16.4626 24.0313 16.8438ZM37.2742 37.2743C36.9995 37.54 36.6322 37.6885 36.25 37.6885C35.8678 37.6885 35.5005 37.54 35.2258 37.2743L27.4633 29.4938C24.194 32.2398 19.9909 33.6177 15.7304 33.34C11.47 33.0624 7.48118 31.1506 4.59598 28.0036C1.71078 24.8565 0.151923 20.717 0.244533 16.4486C0.337144 12.1801 2.07407 8.11213 5.09305 5.09314C8.11204 2.07416 12.18 0.337235 16.4485 0.244625C20.7169 0.152015 24.8564 1.71087 28.0035 4.59607C31.1506 7.48128 33.0623 11.4701 33.3399 15.7305C33.6176 19.991 32.2397 24.1941 29.4938 27.4634L37.2742 35.2259C37.5442 35.4984 37.6956 35.8665 37.6956 36.2501C37.6956 36.6337 37.5442 37.0018 37.2742 37.2743ZM16.8438 30.5001C19.5447 30.5001 22.185 29.6992 24.4308 28.1986C26.6765 26.698 28.4269 24.5652 29.4605 22.0699C30.4941 19.5745 30.7645 16.8287 30.2376 14.1796C29.7107 11.5306 28.41 9.09728 26.5002 7.18742C24.5903 5.27756 22.157 3.97693 19.508 3.45C16.8589 2.92307 14.1131 3.19351 11.6177 4.22712C9.12238 5.26072 6.98956 7.01108 5.489 9.25684C3.98843 11.5026 3.1875 14.1429 3.1875 16.8438C3.19226 20.4642 4.63256 23.935 7.19258 26.495C9.75259 29.055 13.2234 30.4953 16.8438 30.5001Z" fill="white"/>
</svg>
