<svg width="311" height="330" viewBox="0 0 311 330" fill="none" xmlns="http://www.w3.org/2000/svg">
<path opacity="0.5" d="M105.738 141.261L308.069 83.5513" stroke="#AFB9CB" stroke-width="0.15" stroke-miterlimit="10" stroke-linecap="round"/>
<path d="M267.436 29.9533L309.967 109.135" stroke="#AFB9CB" stroke-width="0.26" stroke-miterlimit="10" stroke-linecap="round"/>
<path d="M309.967 199.53L181.492 325.625" stroke="#AFB9CB" stroke-width="0.26" stroke-miterlimit="10" stroke-linecap="round"/>
<path d="M309.967 194.495L181.492 302.283" stroke="#AFB9CB" stroke-width="0.26" stroke-miterlimit="10" stroke-linecap="round"/>
<path d="M1 129.881L98.0421 92.0422" stroke="#AFB9CB" stroke-width="0.26" stroke-miterlimit="10" stroke-linecap="round"/>
<path d="M267.437 144.377L87.2244 92.0422" stroke="#AFB9CB" stroke-width="0.26" stroke-miterlimit="10" stroke-linecap="round"/>
<path d="M1 202.047L104.891 235.688" stroke="#AFB9CB" stroke-width="0.26" stroke-miterlimit="10" stroke-linecap="round"/>
<path d="M197.715 302.283L1 211.659" stroke="#AFB9CB" stroke-width="0.26" stroke-miterlimit="10" stroke-linecap="round"/>
<path d="M197.715 325.625L1 221.271" stroke="#AFB9CB" stroke-width="0.26" stroke-miterlimit="10" stroke-linecap="round"/>
<path d="M190.269 131.112L309.967 156.893" stroke="#AFB9CB" stroke-width="0.26" stroke-miterlimit="10" stroke-linecap="round"/>
<path d="M203.128 132.02L1 160.397" stroke="#AFB9CB" stroke-width="0.26" stroke-miterlimit="10" stroke-linecap="round"/>
<path d="M1 200.067L208.782 259.259" stroke="#AFB9CB" stroke-width="0.26" stroke-miterlimit="10" stroke-linecap="round"/>
<path d="M193.119 259.259L309.967 187.551" stroke="#AFB9CB" stroke-width="0.26" stroke-miterlimit="10" stroke-linecap="round"/>
<path d="M287.167 36.8187L1 144.007" stroke="#AFB9CB" stroke-width="0.26" stroke-miterlimit="10" stroke-linecap="round"/>
<path d="M104.891 167.057L1 169.243" stroke="#AFB9CB" stroke-width="0.26" stroke-miterlimit="10" stroke-linecap="round"/>
<path d="M87.2244 167.057L309.967 171.121" stroke="#AFB9CB" stroke-width="0.26" stroke-miterlimit="10" stroke-linecap="round"/>
<path d="M92.4859 235.688L309.967 178.247" stroke="#AFB9CB" stroke-width="0.26" stroke-miterlimit="10" stroke-linecap="round"/>
<g opacity="0.5">
<path d="M267.436 27.4755L309.967 106.657" stroke="#AFB9CB" stroke-width="0.15" stroke-miterlimit="10" stroke-linecap="round"/>
<path d="M309.967 197.052L181.492 323.155" stroke="#AFB9CB" stroke-width="0.15" stroke-miterlimit="10" stroke-linecap="round"/>
<path d="M309.967 192.017L181.492 299.813" stroke="#AFB9CB" stroke-width="0.15" stroke-miterlimit="10" stroke-linecap="round"/>
<path d="M0.999878 127.411L98.042 89.5723" stroke="#AFB9CB" stroke-width="0.15" stroke-miterlimit="10" stroke-linecap="round"/>
<path d="M267.437 141.9L87.2243 89.5723" stroke="#AFB9CB" stroke-width="0.15" stroke-miterlimit="10" stroke-linecap="round"/>
<path d="M0.999878 199.57L104.891 233.218" stroke="#AFB9CB" stroke-width="0.15" stroke-miterlimit="10" stroke-linecap="round"/>
<path d="M197.715 299.813L0.999878 209.181" stroke="#AFB9CB" stroke-width="0.15" stroke-miterlimit="10" stroke-linecap="round"/>
<path d="M197.715 323.155L0.999878 218.793" stroke="#AFB9CB" stroke-width="0.15" stroke-miterlimit="10" stroke-linecap="round"/>
<path d="M190.269 128.634L309.967 154.423" stroke="#AFB9CB" stroke-width="0.15" stroke-miterlimit="10" stroke-linecap="round"/>
<path d="M203.127 129.542L0.999878 157.919" stroke="#AFB9CB" stroke-width="0.15" stroke-miterlimit="10" stroke-linecap="round"/>
<path d="M0.999878 197.589L208.782 256.789" stroke="#AFB9CB" stroke-width="0.15" stroke-miterlimit="10" stroke-linecap="round"/>
<path d="M193.118 256.789L309.967 185.081" stroke="#AFB9CB" stroke-width="0.15" stroke-miterlimit="10" stroke-linecap="round"/>
<path d="M287.167 34.341L0.999878 141.529" stroke="#AFB9CB" stroke-width="0.15" stroke-miterlimit="10" stroke-linecap="round"/>
<path d="M104.891 164.579L0.999878 166.773" stroke="#AFB9CB" stroke-width="0.15" stroke-miterlimit="10" stroke-linecap="round"/>
<path d="M87.2243 164.579L309.967 168.643" stroke="#AFB9CB" stroke-width="0.15" stroke-miterlimit="10" stroke-linecap="round"/>
<path d="M92.4858 233.218L309.967 175.769" stroke="#AFB9CB" stroke-width="0.15" stroke-miterlimit="10" stroke-linecap="round"/>
</g>
<g opacity="0.5">
<path d="M267.436 31.8472L309.967 111.029" stroke="#AFB9CB" stroke-width="0.15" stroke-miterlimit="10" stroke-linecap="round"/>
<path d="M309.967 201.424L181.492 327.527" stroke="#AFB9CB" stroke-width="0.15" stroke-miterlimit="10" stroke-linecap="round"/>
<path d="M309.967 196.389L181.492 304.185" stroke="#AFB9CB" stroke-width="0.15" stroke-miterlimit="10" stroke-linecap="round"/>
<path d="M0.999878 131.775L98.042 93.9441" stroke="#AFB9CB" stroke-width="0.15" stroke-miterlimit="10" stroke-linecap="round"/>
<path d="M267.437 146.271L87.2243 93.9441" stroke="#AFB9CB" stroke-width="0.15" stroke-miterlimit="10" stroke-linecap="round"/>
<path d="M0.999878 203.941L104.891 237.582" stroke="#AFB9CB" stroke-width="0.15" stroke-miterlimit="10" stroke-linecap="round"/>
<path d="M197.715 304.185L0.999878 213.553" stroke="#AFB9CB" stroke-width="0.15" stroke-miterlimit="10" stroke-linecap="round"/>
<path d="M197.715 327.527L0.999878 223.165" stroke="#AFB9CB" stroke-width="0.15" stroke-miterlimit="10" stroke-linecap="round"/>
<path d="M190.269 133.006L309.967 158.787" stroke="#AFB9CB" stroke-width="0.15" stroke-miterlimit="10" stroke-linecap="round"/>
<path d="M203.127 133.914L0.999878 162.291" stroke="#AFB9CB" stroke-width="0.15" stroke-miterlimit="10" stroke-linecap="round"/>
<path d="M0.999878 201.961L208.782 261.153" stroke="#AFB9CB" stroke-width="0.15" stroke-miterlimit="10" stroke-linecap="round"/>
<path d="M193.118 261.153L309.967 189.453" stroke="#AFB9CB" stroke-width="0.15" stroke-miterlimit="10" stroke-linecap="round"/>
<path d="M287.167 38.7127L0.999878 145.901" stroke="#AFB9CB" stroke-width="0.15" stroke-miterlimit="10" stroke-linecap="round"/>
<path d="M104.891 168.951L0.999878 171.145" stroke="#AFB9CB" stroke-width="0.15" stroke-miterlimit="10" stroke-linecap="round"/>
<path d="M87.2243 168.951L309.967 173.015" stroke="#AFB9CB" stroke-width="0.15" stroke-miterlimit="10" stroke-linecap="round"/>
<path d="M92.4858 237.582L309.967 180.141" stroke="#AFB9CB" stroke-width="0.15" stroke-miterlimit="10" stroke-linecap="round"/>
</g>
<path d="M4.40936 128.776V223.094L7.26688 224.593V127.664L4.40936 128.776Z" stroke="#AFB9CB" stroke-width="0.26" stroke-miterlimit="10" stroke-linecap="round"/>
<path d="M7.26709 127.664L10.3816 128.358V223.614L7.26709 224.593" stroke="#AFB9CB" stroke-width="0.26" stroke-miterlimit="10" stroke-linecap="round"/>
<path d="M99.3573 233.873V95.5698L105.738 97.4242V232.192L99.3573 233.873Z" stroke="#AFB9CB" stroke-width="0.26" stroke-miterlimit="10" stroke-linecap="round"/>
<path d="M99.3575 95.5698L93.2191 97.5347V231.9L99.3575 233.873V95.5698Z" stroke="#AFB9CB" stroke-width="0.26" stroke-miterlimit="10" stroke-linecap="round"/>
<path d="M129.324 142.87V236.619L133.958 237.945V142.239L129.324 142.87Z" stroke="#AFB9CB" stroke-width="0.26" stroke-miterlimit="10" stroke-linecap="round"/>
<path d="M133.957 142.239L138.674 143.004V236.169L133.957 237.945" stroke="#AFB9CB" stroke-width="0.26" stroke-miterlimit="10" stroke-linecap="round"/>
<path d="M198.085 256.213V132.777L191.516 133.645V254.343L198.085 256.213Z" stroke="#AFB9CB" stroke-width="0.26" stroke-miterlimit="10" stroke-linecap="round"/>
<path d="M198.085 132.777L204.05 134.079V252.552L198.085 256.213V132.777Z" stroke="#AFB9CB" stroke-width="0.26" stroke-miterlimit="10" stroke-linecap="round"/>
<path d="M273.809 41.8139V235.017L277.37 231.521V48.4505L273.809 41.8139Z" stroke="#AFB9CB" stroke-width="0.51" stroke-miterlimit="10" stroke-linecap="round"/>
<path d="M273.81 41.8139L268.246 43.9051V234.22L273.81 235.017V41.8139Z" stroke="#AFB9CB" stroke-width="0.51" stroke-miterlimit="10" stroke-linecap="round"/>
<path d="M304.524 99.0025V204.872L302.392 206.972V95.0253L304.524 99.0025Z" stroke="#AFB9CB" stroke-width="0.26" stroke-miterlimit="10" stroke-linecap="round"/>
<path d="M302.392 95.0253L299.043 96.2011V206.972H302.392" stroke="#AFB9CB" stroke-width="0.26" stroke-miterlimit="10" stroke-linecap="round"/>
<path d="M171.771 80.0396V220.355L176.586 221.271V78.2325L171.771 80.0396Z" stroke="#AFB9CB" stroke-width="0.26" stroke-miterlimit="10" stroke-linecap="round"/>
<path d="M176.586 78.2325L181.492 80.9866V218.872L176.586 221.271V78.2325Z" stroke="#AFB9CB" stroke-width="0.26" stroke-miterlimit="10" stroke-linecap="round"/>
<path d="M278.489 235.688L1 195.829" stroke="#AFB9CB" stroke-width="0.26" stroke-miterlimit="10" stroke-linecap="round"/>
<path d="M299.043 227.45L253.043 222.486V144.559" stroke="#AFB9CB" stroke-width="0.51" stroke-miterlimit="10" stroke-linecap="round"/>
<path d="M247.283 63.3179L195.81 81.1681" stroke="#AFB9CB" stroke-width="0.51" stroke-miterlimit="10" stroke-linecap="round"/>
<path d="M199.053 77.5065V132.777" stroke="#AFB9CB" stroke-width="0.51" stroke-miterlimit="10" stroke-linecap="round"/>
<path d="M199.053 80.0396L209.576 84.8296L244.796 73.3872" stroke="#AFB9CB" stroke-width="0.51" stroke-miterlimit="10" stroke-linecap="round"/>
<path d="M209.576 84.8297V134.632" stroke="#AFB9CB" stroke-width="0.51" stroke-miterlimit="10" stroke-linecap="round"/>
<path d="M213.303 136.06V87.5758L244.796 77.5065" stroke="#AFB9CB" stroke-width="0.51" stroke-miterlimit="10" stroke-linecap="round"/>
<path d="M213.303 87.5758L215.934 89.1777L244.796 80.0238" stroke="#AFB9CB" stroke-width="0.51" stroke-miterlimit="10" stroke-linecap="round"/>
<path d="M215.934 89.1778V136.636" stroke="#AFB9CB" stroke-width="0.51" stroke-miterlimit="10" stroke-linecap="round"/>
<path d="M232.534 81.4285V140.203" stroke="#AFB9CB" stroke-width="0.51" stroke-miterlimit="10" stroke-linecap="round"/>
<path d="M234.938 140.724V80.663L236.896 82.5333V141.142" stroke="#AFB9CB" stroke-width="0.51" stroke-linecap="round" stroke-linejoin="round"/>
<path d="M282.201 81.6732V132.777L295.861 140.029V100.439L282.201 81.6732Z" stroke="#AFB9CB" stroke-width="0.51" stroke-miterlimit="10" stroke-linecap="round"/>
<path d="M295.861 100.439H291.99L282.201 89.7538" stroke="#AFB9CB" stroke-width="0.51" stroke-miterlimit="10" stroke-linecap="round"/>
<path d="M291.99 100.439V137.851" stroke="#AFB9CB" stroke-width="0.51" stroke-miterlimit="10" stroke-linecap="round"/>
<path d="M290.675 137.275V101.354L282.201 92.0422" stroke="#AFB9CB" stroke-width="0.51" stroke-miterlimit="10" stroke-linecap="round"/>
<path d="M290.675 101.354H289.617L282.201 93.9126" stroke="#AFB9CB" stroke-width="0.51" stroke-miterlimit="10" stroke-linecap="round"/>
<path d="M289.617 101.354V136.715" stroke="#AFB9CB" stroke-width="0.51" stroke-miterlimit="10" stroke-linecap="round"/>
<path d="M185.37 252.852V149.752L142.318 154.447V240.328L153.355 235.688V153.239" stroke="#AFB9CB" stroke-width="0.51" stroke-miterlimit="10" stroke-linecap="round"/>
<path d="M153.355 235.688L185.37 244.305" stroke="#AFB9CB" stroke-width="0.51" stroke-miterlimit="10" stroke-linecap="round"/>
<path d="M167.757 161.462L156.946 162.378V183.321H167.757V161.462Z" stroke="#AFB9CB" stroke-width="0.51" stroke-miterlimit="10" stroke-linecap="round"/>
<path d="M170.1 161.462V183.321H183.397V160.397L170.1 161.462Z" stroke="#AFB9CB" stroke-width="0.51" stroke-miterlimit="10" stroke-linecap="round"/>
<path d="M156.946 186.028H167.757V206.167L156.946 205.401V186.028Z" stroke="#AFB9CB" stroke-width="0.51" stroke-miterlimit="10" stroke-linecap="round"/>
<path d="M170.1 186.028V206.167L183.397 206.971V186.336L170.1 186.028Z" stroke="#AFB9CB" stroke-width="0.51" stroke-miterlimit="10" stroke-linecap="round"/>
<path d="M210.801 149.752V169.314L248.372 170.001V154.676L210.801 149.752Z" stroke="#AFB9CB" stroke-width="0.51" stroke-miterlimit="10" stroke-linecap="round"/>
<path d="M244.161 169.922V154.123" stroke="#AFB9CB" stroke-width="0.51" stroke-miterlimit="10" stroke-linecap="round"/>
<path d="M228.278 152.04V169.63" stroke="#AFB9CB" stroke-width="0.51" stroke-miterlimit="10" stroke-linecap="round"/>
<path d="M231.355 152.442V169.63" stroke="#AFB9CB" stroke-width="0.51" stroke-miterlimit="10" stroke-linecap="round"/>
<path d="M226.07 152.04V169.598" stroke="#AFB9CB" stroke-width="0.51" stroke-miterlimit="10" stroke-linecap="round"/>
<path d="M282.201 159.024V170.616L295.861 170.861V161.036L282.201 159.024Z" stroke="#AFB9CB" stroke-width="0.51" stroke-miterlimit="10" stroke-linecap="round"/>
<path d="M293.767 160.728V170.829" stroke="#AFB9CB" stroke-width="0.51" stroke-miterlimit="10" stroke-linecap="round"/>
<path d="M289.027 160.034V170.742" stroke="#AFB9CB" stroke-width="0.51" stroke-miterlimit="10" stroke-linecap="round"/>
<path d="M287.167 159.876V170.703" stroke="#AFB9CB" stroke-width="0.51" stroke-miterlimit="10" stroke-linecap="round"/>
<path d="M285.995 159.584V170.687" stroke="#AFB9CB" stroke-width="0.51" stroke-miterlimit="10" stroke-linecap="round"/>
<path d="M4.40936 126.527V213.229L187.245 297.461L273.81 224.727L253.043 222.486L198.085 256.213V132.777L109.903 145.104V231.087" stroke="#AFB9CB" stroke-width="1.03" stroke-miterlimit="10" stroke-linecap="round"/>
<path d="M273.809 36.8187V149.104" stroke="#AFB9CB" stroke-width="1.03" stroke-miterlimit="10" stroke-linecap="round"/>
<path d="M93.423 93.8495V167.302H99.3573V233.873L109.903 231.087L142.318 240.328" stroke="#AFB9CB" stroke-width="1.03" stroke-miterlimit="10" stroke-linecap="round"/>
<path d="M33.0524 212.424L10.3813 215.755V169.243L32.6215 168.58L33.0524 212.424ZM33.0524 212.424L99.3573 233.873" stroke="#AFB9CB" stroke-width="1.03" stroke-miterlimit="10" stroke-linecap="round"/>
<path d="M4.40936 213.229V223.094L187.184 320.038V297.461" stroke="#AFB9CB" stroke-width="1.03" stroke-miterlimit="10" stroke-linecap="round"/>
<path d="M187.184 320.038L304.524 204.872V99.0023L273.81 41.8139L171.771 80.0395V116.6L93.4232 93.8493L4.40936 128.776" stroke="#AFB9CB" stroke-width="1.03" stroke-miterlimit="10" stroke-linecap="round"/>
<path d="M171.771 116.6V136.431" stroke="#AFB9CB" stroke-width="1.03" stroke-miterlimit="10" stroke-linecap="round"/>
<path d="M273.809 224.727V149.104" stroke="#AFB9CB" stroke-width="1.03" stroke-miterlimit="10" stroke-linecap="round"/>
<path d="M198.085 132.777L252.726 144.559L253.043 222.486" stroke="#AFB9CB" stroke-width="1.03" stroke-miterlimit="10" stroke-linecap="round"/>
<path d="M110.614 111.368V132.777L165.564 144.007V126.117L110.614 111.368Z" stroke="#AFB9CB" stroke-width="0.51" stroke-miterlimit="10" stroke-linecap="round"/>
<path d="M165.564 126.117L161.134 127.285L161.361 143.147" stroke="#AFB9CB" stroke-width="0.51" stroke-miterlimit="10" stroke-linecap="round"/>
<path d="M161.134 127.285L110.614 114.17" stroke="#AFB9CB" stroke-width="0.51" stroke-miterlimit="10" stroke-linecap="round"/>
<path d="M159.615 142.791V128.279L110.614 115.693" stroke="#AFB9CB" stroke-width="0.51" stroke-miterlimit="10" stroke-linecap="round"/>
<path d="M159.615 128.279H158.405V142.539" stroke="#AFB9CB" stroke-width="0.51" stroke-miterlimit="10" stroke-linecap="round"/>
<path d="M148.2 125.352V140.455" stroke="#AFB9CB" stroke-width="0.51" stroke-miterlimit="10" stroke-linecap="round"/>
<path d="M146.499 124.91V139.966" stroke="#AFB9CB" stroke-width="0.51" stroke-miterlimit="10" stroke-linecap="round"/>
<path d="M145.327 124.91V139.919" stroke="#AFB9CB" stroke-width="0.51" stroke-miterlimit="10" stroke-linecap="round"/>
<path d="M129.324 120.727V136.597" stroke="#AFB9CB" stroke-width="0.51" stroke-miterlimit="10" stroke-linecap="round"/>
<path d="M126.98 136.123V119.899" stroke="#AFB9CB" stroke-width="0.51" stroke-miterlimit="10" stroke-linecap="round"/>
<path d="M125.604 119.544V135.784" stroke="#AFB9CB" stroke-width="0.51" stroke-miterlimit="10" stroke-linecap="round"/>
<path d="M93.4234 167.302L32.6218 168.58" stroke="#AFB9CB" stroke-width="1.03" stroke-miterlimit="10" stroke-linecap="round"/>
<path d="M77.2911 115.424V149.688" stroke="#AFB9CB" stroke-width="0.51" stroke-miterlimit="10" stroke-linecap="round"/>
<path d="M52.9415 124.547V153.105" stroke="#AFB9CB" stroke-width="0.51" stroke-miterlimit="10" stroke-linecap="round"/>
<path d="M38.1627 130.079V155.181" stroke="#AFB9CB" stroke-width="0.51" stroke-miterlimit="10" stroke-linecap="round"/>
<path d="M18.5381 137.433V158.566" stroke="#AFB9CB" stroke-width="0.51" stroke-miterlimit="10" stroke-linecap="round"/>
<path d="M18.5381 137.433L21.4561 137.851V157.525" stroke="#AFB9CB" stroke-width="0.51" stroke-miterlimit="10" stroke-linecap="round"/>
<path d="M21.4562 137.851L38.1629 132.249" stroke="#AFB9CB" stroke-width="0.51" stroke-miterlimit="10" stroke-linecap="round"/>
<path d="M52.9415 124.547L56.9027 125.036V152.466" stroke="#AFB9CB" stroke-width="0.51" stroke-miterlimit="10" stroke-linecap="round"/>
<path d="M56.9027 125.036L77.2909 117.713" stroke="#AFB9CB" stroke-width="0.51" stroke-miterlimit="10" stroke-linecap="round"/>
<path d="M58.1429 152.372V125.841L77.2912 119.125" stroke="#AFB9CB" stroke-width="0.51" stroke-miterlimit="10" stroke-linecap="round"/>
<path d="M69.0284 122.021V150.848" stroke="#AFB9CB" stroke-width="0.51" stroke-miterlimit="10" stroke-linecap="round"/>
<path d="M70.6086 150.62V121.469L71.735 122.021V150.462" stroke="#AFB9CB" stroke-width="0.51" stroke-miterlimit="10" stroke-linecap="round"/>
<path d="M58.1429 125.841L59.0198 126.22V152.253" stroke="#AFB9CB" stroke-width="0.51" stroke-miterlimit="10" stroke-linecap="round"/>
<path d="M59.0195 126.22L69.0284 122.866" stroke="#AFB9CB" stroke-width="0.51" stroke-miterlimit="10" stroke-linecap="round"/>
<path d="M71.7349 122.021L77.2911 120.041" stroke="#AFB9CB" stroke-width="0.51" stroke-miterlimit="10" stroke-linecap="round"/>
<path d="M22.4916 157.375V138.506L38.1626 133.622" stroke="#AFB9CB" stroke-width="0.51" stroke-miterlimit="10" stroke-linecap="round"/>
<path d="M30.3312 136.06V156.278" stroke="#AFB9CB" stroke-width="0.51" stroke-miterlimit="10" stroke-linecap="round"/>
<path d="M31.3666 156.136V135.737L32.1302 136.06V156.025" stroke="#AFB9CB" stroke-width="0.51" stroke-miterlimit="10" stroke-linecap="round"/>
<path d="M22.4916 138.506L23.1947 138.767V157.28" stroke="#AFB9CB" stroke-width="0.51" stroke-miterlimit="10" stroke-linecap="round"/>
<path d="M23.1951 138.767L30.3313 136.597" stroke="#AFB9CB" stroke-width="0.51" stroke-miterlimit="10" stroke-linecap="round"/>
<path d="M32.1301 136.06L38.1627 134.19" stroke="#AFB9CB" stroke-width="0.51" stroke-miterlimit="10" stroke-linecap="round"/>
<path d="M7.26709 101.354V254.501" stroke="#AFB9CB" stroke-width="0.15" stroke-miterlimit="10" stroke-linecap="round"/>
<path d="M93.2191 72.7085V301.139" stroke="#AFB9CB" stroke-width="0.15" stroke-miterlimit="10" stroke-linecap="round"/>
<path d="M99.3573 75.2338V307.775" stroke="#AFB9CB" stroke-width="0.15" stroke-miterlimit="10" stroke-linecap="round"/>
<path d="M171.513 70.42V329.705" stroke="#AFB9CB" stroke-width="0.15" stroke-miterlimit="10" stroke-linecap="round"/>
<path d="M273.809 24.7767V258.865" stroke="#AFB9CB" stroke-width="0.15" stroke-miterlimit="10" stroke-linecap="round"/>
<path d="M133.957 54.598V249.293" stroke="#AFB9CB" stroke-width="0.15" stroke-miterlimit="10" stroke-linecap="round"/>
<path d="M304.524 77.0962V228.073" stroke="#AFB9CB" stroke-width="0.15" stroke-miterlimit="10" stroke-linecap="round"/>
<path d="M198.297 114.604V265.58" stroke="#AFB9CB" stroke-width="0.15" stroke-miterlimit="10" stroke-linecap="round"/>
<path d="M1 119.141L285.995 0.921204" stroke="#AFB9CB" stroke-width="0.15" stroke-miterlimit="10" stroke-linecap="round"/>
<path d="M309.967 95.0252L258.153 0.921204" stroke="#AFB9CB" stroke-width="0.15" stroke-miterlimit="10" stroke-linecap="round"/>
<path d="M244.796 61.8342V142.657" stroke="#AFB9CB" stroke-width="0.51" stroke-miterlimit="10" stroke-linecap="round"/>
<path d="M38.7072 173.015H93.2192V209.189L38.7072 201.242V173.015Z" stroke="#AFB9CB" stroke-width="0.51" stroke-miterlimit="10" stroke-linecap="round"/>
<path d="M42.1544 173.015V200.674L38.7072 201.242" stroke="#AFB9CB" stroke-width="0.51" stroke-miterlimit="10" stroke-linecap="round"/>
<path d="M42.1616 200.674L93.2189 207.69" stroke="#AFB9CB" stroke-width="0.51" stroke-miterlimit="10" stroke-linecap="round"/>
<path d="M43.817 173.015V199.569L93.2187 205.598" stroke="#AFB9CB" stroke-width="0.51" stroke-miterlimit="10" stroke-linecap="round"/>
<path d="M65.9592 173.015V202.268" stroke="#AFB9CB" stroke-width="0.51" stroke-miterlimit="10" stroke-linecap="round"/>
<path d="M70.0569 202.584V173.015" stroke="#AFB9CB" stroke-width="0.51" stroke-miterlimit="10" stroke-linecap="round"/>
<path d="M68.5219 173.015V202.584" stroke="#AFB9CB" stroke-width="0.51" stroke-miterlimit="10" stroke-linecap="round"/>
<path d="M43.817 199.569H45.0643V173.015" stroke="#AFB9CB" stroke-width="0.51" stroke-miterlimit="10" stroke-linecap="round"/>
</svg>
